<svg width="57" height="56" viewBox="0 0 57 56" fill="none" xmlns="http://www.w3.org/2000/svg">
<rect x="0.5" width="56" height="56" rx="10" fill="white"/>
<path d="M36.2672 21.1141C36.2538 20.8847 36.1566 20.6683 35.9942 20.5058C35.8317 20.3433 35.6153 20.2462 35.3859 20.2328C32.2922 20.0508 29.5586 20.4156 27.2609 21.3164C25.0625 22.1781 23.368 23.5141 22.3586 25.1797C20.982 27.4539 20.9789 30.2148 22.3234 32.8508L20.9617 34.2125C20.8745 34.2997 20.8053 34.4032 20.7581 34.5172C20.7109 34.6311 20.6866 34.7532 20.6866 34.8766C20.6866 34.9999 20.7109 35.122 20.7581 35.2359C20.8053 35.3499 20.8745 35.4534 20.9617 35.5406C21.1378 35.7167 21.3767 35.8157 21.6258 35.8157C21.7491 35.8157 21.8712 35.7914 21.9852 35.7442C22.0991 35.697 22.2026 35.6278 22.2898 35.5406L23.6516 34.1789C24.9594 34.8461 26.2984 35.1828 27.593 35.1828C28.9082 35.1869 30.199 34.8273 31.3226 34.1437C32.9883 33.1344 34.3242 31.4391 35.1859 29.2414C36.0844 26.9422 36.4492 24.2078 36.2672 21.1141ZM30.3484 32.5375C28.7789 33.4883 26.9375 33.5602 25.0578 32.7656L31.6625 26.1609C31.7497 26.0737 31.8189 25.9702 31.8661 25.8563C31.9133 25.7423 31.9376 25.6202 31.9376 25.4969C31.9376 25.3735 31.9133 25.2514 31.8661 25.1375C31.8189 25.0235 31.7497 24.92 31.6625 24.8328C31.5753 24.7456 31.4718 24.6764 31.3578 24.6292C31.2439 24.582 31.1218 24.5577 30.9984 24.5577C30.8751 24.5577 30.753 24.582 30.639 24.6292C30.5251 24.6764 30.4216 24.7456 30.3344 24.8328L23.7344 31.4422C22.9422 29.5672 23.0141 27.7211 23.9687 26.1516C25.6023 23.4539 29.4797 21.9547 34.4375 22.0695C34.5453 27.0258 33.0461 30.9039 30.3484 32.5375Z" fill="black"/>
</svg>
